<mxfile host="app.diagrams.net" agent="Mozilla/5.0 (Macintosh; Intel Mac OS X 10_15_7) AppleWebKit/537.36 (KHTML, like Gecko) Chrome/133.0.0.0 Safari/537.36" version="26.0.16">
  <diagram name="Container View" id="vtxnK-heEkZibKyaEgm-">
    <mxGraphModel dx="1434" dy="819" grid="1" gridSize="10" guides="1" tooltips="1" connect="1" arrows="1" fold="1" page="1" pageScale="1" pageWidth="827" pageHeight="1169" math="0" shadow="0">
      <root>
        <mxCell id="0" />
        <mxCell id="1" parent="0" />
        <mxCell id="YaNhLwsbdKi2lCV9zhRY-29" style="edgeStyle=orthogonalEdgeStyle;rounded=0;orthogonalLoop=1;jettySize=auto;html=1;" edge="1" parent="1" source="YaNhLwsbdKi2lCV9zhRY-24" target="YaNhLwsbdKi2lCV9zhRY-22">
          <mxGeometry relative="1" as="geometry" />
        </mxCell>
        <mxCell id="YaNhLwsbdKi2lCV9zhRY-31" style="edgeStyle=orthogonalEdgeStyle;rounded=0;orthogonalLoop=1;jettySize=auto;html=1;" edge="1" parent="1" source="YaNhLwsbdKi2lCV9zhRY-24" target="YaNhLwsbdKi2lCV9zhRY-30">
          <mxGeometry relative="1" as="geometry" />
        </mxCell>
        <mxCell id="YaNhLwsbdKi2lCV9zhRY-43" style="edgeStyle=orthogonalEdgeStyle;rounded=0;orthogonalLoop=1;jettySize=auto;html=1;" edge="1" parent="1" source="YaNhLwsbdKi2lCV9zhRY-24" target="YaNhLwsbdKi2lCV9zhRY-42">
          <mxGeometry relative="1" as="geometry" />
        </mxCell>
        <mxCell id="YaNhLwsbdKi2lCV9zhRY-24" value="Kubernetes Cluster" style="whiteSpace=wrap;html=1;dashed=1;strokeWidth=2;strokeColor=#999999;labelPosition=center;verticalLabelPosition=top;align=center;verticalAlign=bottom;" vertex="1" parent="1">
          <mxGeometry x="460" y="230" width="330" height="300" as="geometry" />
        </mxCell>
        <mxCell id="YaNhLwsbdKi2lCV9zhRY-1" value="Stream Service" style="rounded=0;whiteSpace=wrap;html=1;" vertex="1" parent="1">
          <mxGeometry x="490" y="260" width="120" height="60" as="geometry" />
        </mxCell>
        <mxCell id="YaNhLwsbdKi2lCV9zhRY-13" style="edgeStyle=orthogonalEdgeStyle;rounded=0;orthogonalLoop=1;jettySize=auto;html=1;entryX=0;entryY=0.5;entryDx=0;entryDy=0;" edge="1" parent="1" source="YaNhLwsbdKi2lCV9zhRY-5" target="YaNhLwsbdKi2lCV9zhRY-8">
          <mxGeometry relative="1" as="geometry" />
        </mxCell>
        <mxCell id="YaNhLwsbdKi2lCV9zhRY-14" style="edgeStyle=orthogonalEdgeStyle;rounded=0;orthogonalLoop=1;jettySize=auto;html=1;entryX=0;entryY=0.25;entryDx=0;entryDy=0;" edge="1" parent="1" source="YaNhLwsbdKi2lCV9zhRY-5" target="YaNhLwsbdKi2lCV9zhRY-10">
          <mxGeometry relative="1" as="geometry" />
        </mxCell>
        <mxCell id="YaNhLwsbdKi2lCV9zhRY-5" value="Listener" style="shape=umlActor;verticalLabelPosition=bottom;verticalAlign=top;html=1;outlineConnect=0;" vertex="1" parent="1">
          <mxGeometry x="20" y="260" width="30" height="60" as="geometry" />
        </mxCell>
        <mxCell id="YaNhLwsbdKi2lCV9zhRY-9" style="edgeStyle=orthogonalEdgeStyle;rounded=0;orthogonalLoop=1;jettySize=auto;html=1;" edge="1" parent="1" source="YaNhLwsbdKi2lCV9zhRY-7" target="YaNhLwsbdKi2lCV9zhRY-1">
          <mxGeometry relative="1" as="geometry" />
        </mxCell>
        <mxCell id="YaNhLwsbdKi2lCV9zhRY-7" value="Frontend App" style="rounded=0;whiteSpace=wrap;html=1;" vertex="1" parent="1">
          <mxGeometry x="320" y="260" width="120" height="60" as="geometry" />
        </mxCell>
        <mxCell id="YaNhLwsbdKi2lCV9zhRY-12" style="edgeStyle=orthogonalEdgeStyle;rounded=0;orthogonalLoop=1;jettySize=auto;html=1;dashed=1;exitX=1;exitY=0.5;exitDx=0;exitDy=0;" edge="1" parent="1" source="YaNhLwsbdKi2lCV9zhRY-8" target="YaNhLwsbdKi2lCV9zhRY-7">
          <mxGeometry relative="1" as="geometry" />
        </mxCell>
        <mxCell id="YaNhLwsbdKi2lCV9zhRY-8" value="Telegram App" style="rounded=0;whiteSpace=wrap;html=1;" vertex="1" parent="1">
          <mxGeometry x="160" y="260" width="120" height="60" as="geometry" />
        </mxCell>
        <mxCell id="YaNhLwsbdKi2lCV9zhRY-11" style="edgeStyle=orthogonalEdgeStyle;rounded=0;orthogonalLoop=1;jettySize=auto;html=1;entryX=0.5;entryY=1;entryDx=0;entryDy=0;dashed=1;" edge="1" parent="1" source="YaNhLwsbdKi2lCV9zhRY-10" target="YaNhLwsbdKi2lCV9zhRY-7">
          <mxGeometry relative="1" as="geometry" />
        </mxCell>
        <mxCell id="YaNhLwsbdKi2lCV9zhRY-10" value="Web App" style="rounded=0;whiteSpace=wrap;html=1;" vertex="1" parent="1">
          <mxGeometry x="160" y="350" width="120" height="60" as="geometry" />
        </mxCell>
        <mxCell id="YaNhLwsbdKi2lCV9zhRY-15" value="Podcast Service" style="rounded=0;whiteSpace=wrap;html=1;" vertex="1" parent="1">
          <mxGeometry x="490" y="350" width="120" height="60" as="geometry" />
        </mxCell>
        <mxCell id="YaNhLwsbdKi2lCV9zhRY-16" value="Telegram&lt;br&gt;Bot Service" style="rounded=0;whiteSpace=wrap;html=1;" vertex="1" parent="1">
          <mxGeometry x="490" y="440" width="120" height="60" as="geometry" />
        </mxCell>
        <mxCell id="YaNhLwsbdKi2lCV9zhRY-27" style="edgeStyle=orthogonalEdgeStyle;rounded=0;orthogonalLoop=1;jettySize=auto;html=1;" edge="1" parent="1" source="YaNhLwsbdKi2lCV9zhRY-17" target="YaNhLwsbdKi2lCV9zhRY-18">
          <mxGeometry relative="1" as="geometry" />
        </mxCell>
        <mxCell id="YaNhLwsbdKi2lCV9zhRY-28" style="edgeStyle=orthogonalEdgeStyle;rounded=0;orthogonalLoop=1;jettySize=auto;html=1;entryX=0;entryY=0.75;entryDx=0;entryDy=0;" edge="1" parent="1" source="YaNhLwsbdKi2lCV9zhRY-17" target="YaNhLwsbdKi2lCV9zhRY-10">
          <mxGeometry relative="1" as="geometry" />
        </mxCell>
        <mxCell id="YaNhLwsbdKi2lCV9zhRY-17" value="Music Owner" style="shape=umlActor;verticalLabelPosition=bottom;verticalAlign=top;html=1;outlineConnect=0;" vertex="1" parent="1">
          <mxGeometry x="20" y="440" width="30" height="60" as="geometry" />
        </mxCell>
        <mxCell id="YaNhLwsbdKi2lCV9zhRY-21" style="edgeStyle=orthogonalEdgeStyle;rounded=0;orthogonalLoop=1;jettySize=auto;html=1;" edge="1" parent="1" source="YaNhLwsbdKi2lCV9zhRY-18" target="YaNhLwsbdKi2lCV9zhRY-16">
          <mxGeometry relative="1" as="geometry" />
        </mxCell>
        <mxCell id="YaNhLwsbdKi2lCV9zhRY-18" value="Telegram Bot" style="rounded=0;whiteSpace=wrap;html=1;" vertex="1" parent="1">
          <mxGeometry x="160" y="440" width="120" height="60" as="geometry" />
        </mxCell>
        <mxCell id="YaNhLwsbdKi2lCV9zhRY-22" value="ChatGPT" style="ellipse;shape=cloud;whiteSpace=wrap;html=1;" vertex="1" parent="1">
          <mxGeometry x="890" y="190" width="120" height="80" as="geometry" />
        </mxCell>
        <mxCell id="YaNhLwsbdKi2lCV9zhRY-23" value="Playlist Service" style="rounded=0;whiteSpace=wrap;html=1;" vertex="1" parent="1">
          <mxGeometry x="640" y="350" width="120" height="60" as="geometry" />
        </mxCell>
        <mxCell id="YaNhLwsbdKi2lCV9zhRY-25" value="Music Service" style="rounded=0;whiteSpace=wrap;html=1;" vertex="1" parent="1">
          <mxGeometry x="640" y="260" width="120" height="60" as="geometry" />
        </mxCell>
        <mxCell id="YaNhLwsbdKi2lCV9zhRY-26" value="News Service" style="rounded=0;whiteSpace=wrap;html=1;" vertex="1" parent="1">
          <mxGeometry x="640" y="440" width="120" height="60" as="geometry" />
        </mxCell>
        <mxCell id="YaNhLwsbdKi2lCV9zhRY-30" value="TTS&lt;br&gt;Providers" style="ellipse;shape=cloud;whiteSpace=wrap;html=1;" vertex="1" parent="1">
          <mxGeometry x="890" y="500" width="120" height="80" as="geometry" />
        </mxCell>
        <mxCell id="YaNhLwsbdKi2lCV9zhRY-32" value="&lt;b&gt;- Listen to music&lt;/b&gt;&lt;div&gt;&lt;br&gt;&lt;/div&gt;&lt;div&gt;- Listen to podcasts&lt;br&gt;&lt;div&gt;- Request a song&lt;/div&gt;&lt;/div&gt;" style="text;html=1;align=left;verticalAlign=middle;whiteSpace=wrap;rounded=0;" vertex="1" parent="1">
          <mxGeometry x="140" y="40" width="210" height="65" as="geometry" />
        </mxCell>
        <mxCell id="YaNhLwsbdKi2lCV9zhRY-34" value="Listener" style="shape=umlActor;verticalLabelPosition=bottom;verticalAlign=top;html=1;outlineConnect=0;" vertex="1" parent="1">
          <mxGeometry x="80" y="40" width="30" height="60" as="geometry" />
        </mxCell>
        <mxCell id="YaNhLwsbdKi2lCV9zhRY-35" value="Music Owner" style="shape=umlActor;verticalLabelPosition=bottom;verticalAlign=top;html=1;outlineConnect=0;" vertex="1" parent="1">
          <mxGeometry x="399" y="40" width="30" height="60" as="geometry" />
        </mxCell>
        <mxCell id="YaNhLwsbdKi2lCV9zhRY-36" value="Admin" style="shape=umlActor;verticalLabelPosition=bottom;verticalAlign=top;html=1;outlineConnect=0;" vertex="1" parent="1">
          <mxGeometry x="740" y="40" width="30" height="60" as="geometry" />
        </mxCell>
        <mxCell id="YaNhLwsbdKi2lCV9zhRY-37" value="&lt;b&gt;- Upload/send music on radio&lt;/b&gt;" style="text;html=1;align=left;verticalAlign=middle;whiteSpace=wrap;rounded=0;" vertex="1" parent="1">
          <mxGeometry x="460" y="55" width="210" height="30" as="geometry" />
        </mxCell>
        <mxCell id="YaNhLwsbdKi2lCV9zhRY-38" value="&lt;div&gt;&lt;b&gt;- Control radio (admins)&lt;/b&gt;&lt;/div&gt;&lt;div&gt;&lt;br&gt;&lt;/div&gt;&lt;div&gt;- Monitor statistics&lt;/div&gt;" style="text;html=1;align=left;verticalAlign=middle;whiteSpace=wrap;rounded=0;" vertex="1" parent="1">
          <mxGeometry x="800" y="45" width="210" height="55" as="geometry" />
        </mxCell>
        <mxCell id="YaNhLwsbdKi2lCV9zhRY-40" value="CloudSound" style="shape=process;whiteSpace=wrap;html=1;backgroundOutline=1;" vertex="1" parent="1">
          <mxGeometry x="1060" y="290" width="120" height="60" as="geometry" />
        </mxCell>
        <mxCell id="YaNhLwsbdKi2lCV9zhRY-44" style="edgeStyle=orthogonalEdgeStyle;rounded=0;orthogonalLoop=1;jettySize=auto;html=1;exitX=0.625;exitY=0.2;exitDx=0;exitDy=0;exitPerimeter=0;dashed=1;" edge="1" parent="1" source="YaNhLwsbdKi2lCV9zhRY-42" target="YaNhLwsbdKi2lCV9zhRY-40">
          <mxGeometry relative="1" as="geometry">
            <Array as="points">
              <mxPoint x="960" y="356" />
              <mxPoint x="960" y="320" />
            </Array>
          </mxGeometry>
        </mxCell>
        <mxCell id="YaNhLwsbdKi2lCV9zhRY-46" style="edgeStyle=orthogonalEdgeStyle;rounded=0;orthogonalLoop=1;jettySize=auto;html=1;exitX=0.55;exitY=0.95;exitDx=0;exitDy=0;exitPerimeter=0;dashed=1;" edge="1" parent="1" source="YaNhLwsbdKi2lCV9zhRY-42" target="YaNhLwsbdKi2lCV9zhRY-45">
          <mxGeometry relative="1" as="geometry">
            <Array as="points">
              <mxPoint x="956" y="450" />
            </Array>
          </mxGeometry>
        </mxCell>
        <mxCell id="YaNhLwsbdKi2lCV9zhRY-42" value="Music&lt;br&gt;Providers" style="ellipse;shape=cloud;whiteSpace=wrap;html=1;" vertex="1" parent="1">
          <mxGeometry x="890" y="340" width="120" height="80" as="geometry" />
        </mxCell>
        <mxCell id="YaNhLwsbdKi2lCV9zhRY-45" value="Suno" style="shape=process;whiteSpace=wrap;html=1;backgroundOutline=1;" vertex="1" parent="1">
          <mxGeometry x="1060" y="420" width="120" height="60" as="geometry" />
        </mxCell>
      </root>
    </mxGraphModel>
  </diagram>
</mxfile>
